# xmcd CD database file
#
# Track frame offsets:
#	150
#	20622
#	44737
#	63877
#	83690
#	102727
#	121030
#	140610
#	158105
#	178915
#	198367
#	214730
#	231397
#	246950
#
# Disc length: 3559 seconds
#
# Revision: 0
# Processed by: cddbd v1.5.2PL0 Copyright (c) Steve Scherf et al.
# Submitted via: CDex 1.70beta2
#
DISCID=cb0de50e
DTITLE=The Latin Brothers - Sucesos Salsa
DYEAR=1990
DGENRE=Salsa
TTITLE0=Sucesos
TTITLE1=La parranda se canta
TTITLE2=Vuela pajarito
TTITLE3=Nunca fui tan feliz
TTITLE4=Tonterias
TTITLE5=Latigo
TTITLE6=Mi vecina
TTITLE7=Zafa jirafa
TTITLE8=Hacedos anos
TTITLE9=Barranquillero arrebatao
TTITLE10=Campesinita
TTITLE11=Dale al bombo
TTITLE12=Serrana
TTITLE13=Bailame como quieras
EXTD=YEAR: 1990
EXTT0=
EXTT1=
EXTT2=
EXTT3=
EXTT4=
EXTT5=
EXTT6=
EXTT7=
EXTT8=
EXTT9=
EXTT10=
EXTT11=
EXTT12=
EXTT13=
PLAYORDER=
